<svg width="52" height="52" viewBox="0 0 52 52" fill="none" xmlns="http://www.w3.org/2000/svg">
<circle cx="26" cy="26" r="26" fill="#7FC9FE"/>
<path d="M20.2746 20.7927C20.4326 20.3934 20.7542 20.081 21.158 19.9346L35.391 14.7739C36.6064 14.3332 37.7728 15.5339 37.297 16.7361L31.7254 30.8133C31.5674 31.2126 31.2458 31.5251 30.842 31.6714L16.609 36.8321C15.3936 37.2728 14.2272 36.0721 14.703 34.8699L20.2746 20.7927Z" fill="#FD5555"/>
<path d="M29.5 25.5C29.5 27.433 27.933 29 26 29C24.067 29 22.5 27.433 22.5 25.5C22.5 23.567 24.067 22 26 22C27.933 22 29.5 23.567 29.5 25.5Z" fill="#7FC9FE"/>
</svg>
